<mxfile host="app.diagrams.net" modified="2023-09-13T13:23:57.636Z" agent="Mozilla/5.0 (Windows NT 10.0; Win64; x64) AppleWebKit/537.36 (KHTML, like Gecko) Chrome/116.0.0.0 Safari/537.36" etag="XRcy9DrqZBcpYHngnm0S" version="21.7.4" type="github">
  <diagram name="Page-1" id="93hSHz1rbPq92NNtPHbY">
    <mxGraphModel dx="794" dy="464" grid="1" gridSize="10" guides="1" tooltips="1" connect="1" arrows="1" fold="1" page="1" pageScale="1" pageWidth="850" pageHeight="1100" background="none" math="0" shadow="0">
      <root>
        <mxCell id="0" />
        <mxCell id="1" parent="0" />
        <mxCell id="5jogoXL8pZsZA-fbwrhF-3" style="edgeStyle=orthogonalEdgeStyle;rounded=0;orthogonalLoop=1;jettySize=auto;html=1;" edge="1" parent="1" source="5jogoXL8pZsZA-fbwrhF-1" target="5jogoXL8pZsZA-fbwrhF-2">
          <mxGeometry relative="1" as="geometry" />
        </mxCell>
        <mxCell id="5jogoXL8pZsZA-fbwrhF-1" value="start" style="ellipse;whiteSpace=wrap;html=1;" vertex="1" parent="1">
          <mxGeometry x="350" y="20" width="60" height="30" as="geometry" />
        </mxCell>
        <mxCell id="5jogoXL8pZsZA-fbwrhF-4" style="edgeStyle=orthogonalEdgeStyle;rounded=0;orthogonalLoop=1;jettySize=auto;html=1;exitX=1;exitY=0.5;exitDx=0;exitDy=0;entryX=0.5;entryY=0;entryDx=0;entryDy=0;" edge="1" parent="1" source="5jogoXL8pZsZA-fbwrhF-2" target="5jogoXL8pZsZA-fbwrhF-12">
          <mxGeometry relative="1" as="geometry">
            <mxPoint x="490" y="240" as="targetPoint" />
          </mxGeometry>
        </mxCell>
        <mxCell id="5jogoXL8pZsZA-fbwrhF-11" style="edgeStyle=orthogonalEdgeStyle;rounded=0;orthogonalLoop=1;jettySize=auto;html=1;exitX=0;exitY=0.5;exitDx=0;exitDy=0;entryX=0.5;entryY=0;entryDx=0;entryDy=0;" edge="1" parent="1" source="5jogoXL8pZsZA-fbwrhF-2" target="5jogoXL8pZsZA-fbwrhF-51">
          <mxGeometry relative="1" as="geometry">
            <mxPoint x="220" y="150" as="targetPoint" />
          </mxGeometry>
        </mxCell>
        <mxCell id="5jogoXL8pZsZA-fbwrhF-2" value="If&lt;br&gt;current file exist" style="rhombus;whiteSpace=wrap;html=1;" vertex="1" parent="1">
          <mxGeometry x="338.75" y="110" width="82.5" height="80" as="geometry" />
        </mxCell>
        <mxCell id="5jogoXL8pZsZA-fbwrhF-7" value="true" style="text;html=1;strokeColor=none;fillColor=none;align=center;verticalAlign=middle;whiteSpace=wrap;rounded=0;" vertex="1" parent="1">
          <mxGeometry x="430" y="120" width="60" height="30" as="geometry" />
        </mxCell>
        <mxCell id="5jogoXL8pZsZA-fbwrhF-9" value="false" style="text;html=1;strokeColor=none;fillColor=none;align=center;verticalAlign=middle;whiteSpace=wrap;rounded=0;" vertex="1" parent="1">
          <mxGeometry x="270" y="120" width="60" height="30" as="geometry" />
        </mxCell>
        <mxCell id="5jogoXL8pZsZA-fbwrhF-17" style="edgeStyle=orthogonalEdgeStyle;rounded=0;orthogonalLoop=1;jettySize=auto;html=1;exitX=1;exitY=0.5;exitDx=0;exitDy=0;entryX=0.5;entryY=0;entryDx=0;entryDy=0;" edge="1" parent="1" source="5jogoXL8pZsZA-fbwrhF-12" target="5jogoXL8pZsZA-fbwrhF-19">
          <mxGeometry relative="1" as="geometry">
            <mxPoint x="660" y="360" as="targetPoint" />
          </mxGeometry>
        </mxCell>
        <mxCell id="5jogoXL8pZsZA-fbwrhF-28" style="edgeStyle=orthogonalEdgeStyle;rounded=0;orthogonalLoop=1;jettySize=auto;html=1;exitX=0;exitY=0.5;exitDx=0;exitDy=0;entryX=0.5;entryY=0;entryDx=0;entryDy=0;" edge="1" parent="1" source="5jogoXL8pZsZA-fbwrhF-12" target="5jogoXL8pZsZA-fbwrhF-23">
          <mxGeometry relative="1" as="geometry">
            <mxPoint x="405" y="370" as="targetPoint" />
          </mxGeometry>
        </mxCell>
        <mxCell id="5jogoXL8pZsZA-fbwrhF-12" value="if&lt;br&gt;current line&amp;nbsp;&lt;br&gt;isn&#39;t empty&lt;br&gt;AND value&lt;br&gt;is numeric" style="rhombus;whiteSpace=wrap;html=1;verticalAlign=middle;spacingTop=-10;" vertex="1" parent="1">
          <mxGeometry x="425" y="270" width="130" height="130" as="geometry" />
        </mxCell>
        <mxCell id="5jogoXL8pZsZA-fbwrhF-13" style="edgeStyle=orthogonalEdgeStyle;rounded=0;orthogonalLoop=1;jettySize=auto;html=1;exitX=0.5;exitY=1;exitDx=0;exitDy=0;" edge="1" parent="1" source="5jogoXL8pZsZA-fbwrhF-12" target="5jogoXL8pZsZA-fbwrhF-12">
          <mxGeometry relative="1" as="geometry" />
        </mxCell>
        <mxCell id="5jogoXL8pZsZA-fbwrhF-14" value="true" style="text;html=1;strokeColor=none;fillColor=none;align=center;verticalAlign=middle;whiteSpace=wrap;rounded=0;" vertex="1" parent="1">
          <mxGeometry x="550" y="310" width="60" height="30" as="geometry" />
        </mxCell>
        <mxCell id="5jogoXL8pZsZA-fbwrhF-15" value="false" style="text;html=1;strokeColor=none;fillColor=none;align=center;verticalAlign=middle;whiteSpace=wrap;rounded=0;" vertex="1" parent="1">
          <mxGeometry x="370" y="310" width="60" height="30" as="geometry" />
        </mxCell>
        <mxCell id="5jogoXL8pZsZA-fbwrhF-47" style="edgeStyle=orthogonalEdgeStyle;rounded=0;orthogonalLoop=1;jettySize=auto;html=1;exitX=1;exitY=0.5;exitDx=0;exitDy=0;" edge="1" parent="1" source="5jogoXL8pZsZA-fbwrhF-19">
          <mxGeometry relative="1" as="geometry">
            <mxPoint x="490" y="170" as="targetPoint" />
            <Array as="points">
              <mxPoint x="675" y="403" />
              <mxPoint x="675" y="170" />
            </Array>
          </mxGeometry>
        </mxCell>
        <mxCell id="5jogoXL8pZsZA-fbwrhF-19" value="A += value&amp;nbsp;&lt;br&gt;set next line as a &lt;br&gt;current" style="rounded=0;whiteSpace=wrap;html=1;" vertex="1" parent="1">
          <mxGeometry x="555" y="375" width="100" height="55" as="geometry" />
        </mxCell>
        <mxCell id="5jogoXL8pZsZA-fbwrhF-20" value="read current line" style="shape=parallelogram;perimeter=parallelogramPerimeter;whiteSpace=wrap;html=1;fixedSize=1;" vertex="1" parent="1">
          <mxGeometry x="430" y="190" width="120" height="60" as="geometry" />
        </mxCell>
        <mxCell id="5jogoXL8pZsZA-fbwrhF-42" style="edgeStyle=orthogonalEdgeStyle;rounded=0;orthogonalLoop=1;jettySize=auto;html=1;entryX=1.019;entryY=0.472;entryDx=0;entryDy=0;entryPerimeter=0;" edge="1" parent="1" source="5jogoXL8pZsZA-fbwrhF-23" target="5jogoXL8pZsZA-fbwrhF-29">
          <mxGeometry relative="1" as="geometry" />
        </mxCell>
        <mxCell id="5jogoXL8pZsZA-fbwrhF-45" style="edgeStyle=orthogonalEdgeStyle;rounded=0;orthogonalLoop=1;jettySize=auto;html=1;entryX=0.5;entryY=1;entryDx=0;entryDy=0;" edge="1" parent="1" source="5jogoXL8pZsZA-fbwrhF-23" target="5jogoXL8pZsZA-fbwrhF-32">
          <mxGeometry relative="1" as="geometry">
            <mxPoint x="329.9999999999999" y="599.9999999999999" as="targetPoint" />
            <Array as="points">
              <mxPoint x="319" y="410" />
              <mxPoint x="319" y="525" />
              <mxPoint x="690" y="525" />
            </Array>
          </mxGeometry>
        </mxCell>
        <mxCell id="5jogoXL8pZsZA-fbwrhF-23" value="if A &amp;gt; 0" style="rhombus;whiteSpace=wrap;html=1;" vertex="1" parent="1">
          <mxGeometry x="338.75" y="370" width="78.75" height="80" as="geometry" />
        </mxCell>
        <mxCell id="5jogoXL8pZsZA-fbwrhF-46" style="edgeStyle=orthogonalEdgeStyle;rounded=0;orthogonalLoop=1;jettySize=auto;html=1;exitX=0;exitY=0.5;exitDx=0;exitDy=0;entryX=0;entryY=0.5;entryDx=0;entryDy=0;" edge="1" parent="1" source="5jogoXL8pZsZA-fbwrhF-29" target="5jogoXL8pZsZA-fbwrhF-32">
          <mxGeometry relative="1" as="geometry" />
        </mxCell>
        <mxCell id="5jogoXL8pZsZA-fbwrhF-29" value="Adding client and his&lt;br&gt;balance to the list&lt;br&gt;seting A to 0" style="rounded=0;whiteSpace=wrap;html=1;direction=west;" vertex="1" parent="1">
          <mxGeometry x="490" y="450" width="120" height="60" as="geometry" />
        </mxCell>
        <mxCell id="5jogoXL8pZsZA-fbwrhF-49" style="edgeStyle=orthogonalEdgeStyle;rounded=0;orthogonalLoop=1;jettySize=auto;html=1;exitX=1;exitY=0.5;exitDx=0;exitDy=0;" edge="1" parent="1" source="5jogoXL8pZsZA-fbwrhF-32">
          <mxGeometry relative="1" as="geometry">
            <mxPoint x="380" y="70" as="targetPoint" />
            <Array as="points">
              <mxPoint x="770" y="480" />
              <mxPoint x="770" y="70" />
            </Array>
          </mxGeometry>
        </mxCell>
        <mxCell id="5jogoXL8pZsZA-fbwrhF-32" value="set next file as a&lt;br&gt;current" style="rounded=0;whiteSpace=wrap;html=1;" vertex="1" parent="1">
          <mxGeometry x="630" y="450" width="120" height="60" as="geometry" />
        </mxCell>
        <mxCell id="5jogoXL8pZsZA-fbwrhF-37" value="true" style="text;html=1;strokeColor=none;fillColor=none;align=center;verticalAlign=middle;whiteSpace=wrap;rounded=0;" vertex="1" parent="1">
          <mxGeometry x="400" y="387.5" width="60" height="30" as="geometry" />
        </mxCell>
        <mxCell id="5jogoXL8pZsZA-fbwrhF-38" value="false" style="text;html=1;strokeColor=none;fillColor=none;align=center;verticalAlign=middle;whiteSpace=wrap;rounded=0;" vertex="1" parent="1">
          <mxGeometry x="298.13" y="387.5" width="60" height="30" as="geometry" />
        </mxCell>
        <mxCell id="5jogoXL8pZsZA-fbwrhF-55" style="edgeStyle=orthogonalEdgeStyle;rounded=0;orthogonalLoop=1;jettySize=auto;html=1;entryX=0.5;entryY=0;entryDx=0;entryDy=0;" edge="1" parent="1" source="5jogoXL8pZsZA-fbwrhF-51" target="5jogoXL8pZsZA-fbwrhF-54">
          <mxGeometry relative="1" as="geometry">
            <Array as="points">
              <mxPoint x="280" y="235" />
              <mxPoint x="280" y="305" />
            </Array>
          </mxGeometry>
        </mxCell>
        <mxCell id="5jogoXL8pZsZA-fbwrhF-56" style="edgeStyle=orthogonalEdgeStyle;rounded=0;orthogonalLoop=1;jettySize=auto;html=1;" edge="1" parent="1" source="5jogoXL8pZsZA-fbwrhF-51">
          <mxGeometry relative="1" as="geometry">
            <mxPoint x="120" y="300" as="targetPoint" />
          </mxGeometry>
        </mxCell>
        <mxCell id="5jogoXL8pZsZA-fbwrhF-51" value="if the&lt;br&gt;&quot;client-balance&quot;&lt;br&gt;list is empty" style="rhombus;whiteSpace=wrap;html=1;spacingTop=-6;" vertex="1" parent="1">
          <mxGeometry x="159" y="180" width="110" height="110" as="geometry" />
        </mxCell>
        <mxCell id="5jogoXL8pZsZA-fbwrhF-53" value="finsh" style="ellipse;whiteSpace=wrap;html=1;" vertex="1" parent="1">
          <mxGeometry x="347.19" y="620" width="61.87" height="30" as="geometry" />
        </mxCell>
        <mxCell id="5jogoXL8pZsZA-fbwrhF-58" style="edgeStyle=orthogonalEdgeStyle;rounded=0;orthogonalLoop=1;jettySize=auto;html=1;entryX=0.5;entryY=0;entryDx=0;entryDy=0;" edge="1" parent="1" source="5jogoXL8pZsZA-fbwrhF-54" target="5jogoXL8pZsZA-fbwrhF-53">
          <mxGeometry relative="1" as="geometry">
            <mxPoint x="370" y="630" as="targetPoint" />
            <Array as="points">
              <mxPoint x="280" y="560" />
              <mxPoint x="378" y="560" />
            </Array>
          </mxGeometry>
        </mxCell>
        <mxCell id="5jogoXL8pZsZA-fbwrhF-54" value="tell user that&amp;nbsp;&lt;br&gt;there is no potential clients" style="rounded=0;whiteSpace=wrap;html=1;" vertex="1" parent="1">
          <mxGeometry x="240" y="305" width="80" height="60" as="geometry" />
        </mxCell>
        <mxCell id="5jogoXL8pZsZA-fbwrhF-61" style="edgeStyle=orthogonalEdgeStyle;rounded=0;orthogonalLoop=1;jettySize=auto;html=1;exitX=0.5;exitY=1;exitDx=0;exitDy=0;" edge="1" parent="1" source="5jogoXL8pZsZA-fbwrhF-57" target="5jogoXL8pZsZA-fbwrhF-60">
          <mxGeometry relative="1" as="geometry" />
        </mxCell>
        <mxCell id="5jogoXL8pZsZA-fbwrhF-57" value="read&lt;br&gt;product price (P)" style="shape=parallelogram;perimeter=parallelogramPerimeter;whiteSpace=wrap;html=1;fixedSize=1;" vertex="1" parent="1">
          <mxGeometry x="60" y="305" width="130" height="60" as="geometry" />
        </mxCell>
        <mxCell id="5jogoXL8pZsZA-fbwrhF-60" value="if current&lt;br&gt;client &lt;br&gt;balance &amp;gt;= P" style="rhombus;whiteSpace=wrap;html=1;" vertex="1" parent="1">
          <mxGeometry x="63.75" y="390" width="122.5" height="120" as="geometry" />
        </mxCell>
        <mxCell id="5jogoXL8pZsZA-fbwrhF-62" value="true" style="text;html=1;strokeColor=none;fillColor=none;align=center;verticalAlign=middle;whiteSpace=wrap;rounded=0;" vertex="1" parent="1">
          <mxGeometry x="250" y="205" width="60" height="30" as="geometry" />
        </mxCell>
        <mxCell id="5jogoXL8pZsZA-fbwrhF-63" value="false" style="text;html=1;strokeColor=none;fillColor=none;align=center;verticalAlign=middle;whiteSpace=wrap;rounded=0;" vertex="1" parent="1">
          <mxGeometry x="110" y="205" width="60" height="30" as="geometry" />
        </mxCell>
        <mxCell id="5jogoXL8pZsZA-fbwrhF-66" value="" style="edgeStyle=orthogonalEdgeStyle;rounded=0;orthogonalLoop=1;jettySize=auto;html=1;exitX=1;exitY=0.5;exitDx=0;exitDy=0;" edge="1" parent="1" source="5jogoXL8pZsZA-fbwrhF-60" target="5jogoXL8pZsZA-fbwrhF-65">
          <mxGeometry relative="1" as="geometry">
            <mxPoint x="230" y="530" as="targetPoint" />
            <mxPoint x="186" y="450" as="sourcePoint" />
          </mxGeometry>
        </mxCell>
        <mxCell id="5jogoXL8pZsZA-fbwrhF-65" value="wtite the &lt;br&gt;client name&lt;br&gt;set next client&amp;nbsp;" style="rounded=0;whiteSpace=wrap;html=1;" vertex="1" parent="1">
          <mxGeometry x="179" y="490" width="90" height="40" as="geometry" />
        </mxCell>
      </root>
    </mxGraphModel>
  </diagram>
</mxfile>
